<?xml version="1.0" encoding="utf-8"?>
<!-- Generator: Adobe Illustrator 24.0.0, SVG Export Plug-In . SVG Version: 6.00 Build 0)  -->
<svg version="1.1" id="Capa_1" xmlns="http://www.w3.org/2000/svg" xmlns:xlink="http://www.w3.org/1999/xlink" x="0px" y="0px"
	 viewBox="0 0 390.4 390.4" style="enable-background:new 0 0 390.4 390.4;" xml:space="preserve">
<style type="text/css">
	.st0{fill:#FF0000;}
	.st1{fill:#3D2D8D;}
	.st2{font-family:'SegoePrint';}
	.st3{font-size:58.8639px;}
</style>
<g>
	<path class="st0" d="M365.1,349.8c-11.7-41-46.5-181.5-0.6-270.9c0-0.1,0.1-0.2,0.1-0.3c0.2-0.5,0.4-1.1,0.6-1.6
		c0-0.1,0.1-0.3,0.1-0.4c0.1-0.7,0.2-1.4,0.1-2.1c0-0.1-0.1-0.3-0.1-0.4c-0.1-0.6-0.2-1.1-0.4-1.6c-0.1-0.2-0.1-0.4-0.2-0.6
		c-0.2-0.5-0.5-0.9-0.7-1.4c-0.1-0.1-0.1-0.2-0.2-0.4c0-0.1-0.1-0.1-0.2-0.2c-0.1-0.1-0.1-0.2-0.2-0.3l-33-39.3
		c-1.9-2.3-5-3.7-8.2-3.7H57.4c-3.8,0-7.4,1.9-9.1,4.9L25.5,70.9c-0.1,0.2-0.1,0.4-0.2,0.5c-0.1,0.2-0.2,0.5-0.3,0.7
		c-0.2,0.4-0.3,0.9-0.4,1.3c0,0.2-0.1,0.4-0.1,0.6c-0.1,0.6-0.1,1.2,0,1.8c0,0.1,0,0.2,0,0.2c0.1,0.7,0.3,1.3,0.5,1.9
		c0,0.1,0,0.1,0,0.2C73.5,195,39.4,316.4,27.8,350.8c-0.7,2-1.9,5.7,1.2,9.3c1.9,2.3,5,3.6,8.2,3.6c0,0,0.1,0,0.1,0
		c2.8,0,4.8-0.9,6.3-2.1H350c1.5,1,3.4,1.6,5.9,1.6c3.2,0,6.1-1.3,8.1-3.5C367,356.3,366,353,365.1,349.8z M63.6,44.8h253.5
		L334.9,66H51.4L63.6,44.8z M51.3,343.5c13.5-45.3,37-152.7-2.3-259.4h290.9c-36.6,87.5-10.9,209.4,2.4,259.4H51.3z M260,111.4
		c0,2.7-0.9,5.3-2.4,7.5c8.9,32.1-23.9,63.4-60.5,67.8c-43.8,5.3-65-31.4-67.4-64.5c-3.5-2.6-5.7-6.4-5.7-10.8
		c0-7.8,7.1-14.1,16-14.1c8.8,0,16,6.3,16,14.1c0,6.7-5.3,12.3-12.3,13.7c2.6,24,15.8,51.3,47.5,49.8c28.2-1.3,58-24.3,54.1-49.5
		c-0.4,0-0.8,0.1-1.2,0.1c-8.8,0-16-6.3-16-14.2c0-7.8,7.1-14.1,16-14.1C252.8,97.3,260,103.6,260,111.4z"/>
</g>
<text transform="matrix(1 0 0 1 86.3834 276.534)" class="st1 st2 st3">Fashion</text>
</svg>
